<svg xmlns="http://www.w3.org/2000/svg" viewBox="0 0 32 32">
  <rect width="32" height="32" rx="6" fill="#1e1f22"/>
  <!-- logs -->
  <rect x="7" y="24" width="18" height="3" rx="1.5" fill="#5c3d1e"/>
  <rect x="10" y="22" width="12" height="3" rx="1.5" fill="#6b4423" transform="rotate(-12 16 23.5)"/>
  <rect x="10" y="22" width="12" height="3" rx="1.5" fill="#6b4423" transform="rotate(12 16 23.5)"/>
  <!-- outer flame -->
  <path d="M16 6 C12 10 9 14 10 18 C11 21 13 23 16 23 C19 23 21 21 22 18 C23 14 20 10 16 6Z" fill="#ff8c00"/>
  <!-- mid flame -->
  <path d="M16 10 C14 13 13 16 14 18.5 C14.8 20.5 15.5 22 16 22 C17 22 18 20 18.5 18 C19.5 15.5 18 12 16 10Z" fill="#ffb300"/>
  <!-- inner flame -->
  <path d="M16 14 C15 16 15 18 16 19.5 C16.5 20.5 17 19.5 17.5 18 C18 16.5 17 15 16 14Z" fill="#fff176"/>
</svg>
