<svg xmlns="http://www.w3.org/2000/svg" viewBox="0 0 32 32">
  <rect width="32" height="32" rx="6" fill="#1e1f22"/>
  <!-- logs -->
  <ellipse cx="16" cy="26" rx="9" ry="2.5" fill="#4a2c0a"/>
  <rect x="7" y="24.5" width="18" height="3" rx="1.5" fill="#5c3510"/>
  <!-- outer flame — jagged with distinct tips -->
  <path d="M16 5
    C15 7 13 8 12 10
    C11 11.5 11.5 13 10.5 14.5
    C9.5 16 9 17 9.5 19
    C10 21 11.5 22.5 13 23
    C11 21 11.5 19 12.5 17.5
    C13 16.5 13.5 16 13 14.5
    C14 16 15 17 14.5 19
    C14 20.5 14.5 22 16 23
    C17.5 22 18 20.5 17.5 19
    C17 17 18 16 19 14.5
    C18.5 16 19 16.5 19.5 17.5
    C20.5 19 21 21 19 23
    C20.5 22.5 22 21 22.5 19
    C23 17 22.5 16 21.5 14.5
    C20.5 13 21 11.5 20 10
    C19 8 17 7 16 5Z"
    fill="#e65100"/>
  <!-- mid flame -->
  <path d="M16 9
    C15 11 14 12.5 14 14
    C13.5 15.5 14 17 13.5 18.5
    C13 20 13.5 21.5 16 22.5
    C18.5 21.5 19 20 18.5 18.5
    C18 17 18.5 15.5 18 14
    C18 12.5 17 11 16 9Z"
    fill="#ff8f00"/>
  <!-- inner flame -->
  <path d="M16 13
    C15.2 14.5 15 16 15.2 17.5
    C15.4 19 15.8 20 16 20.5
    C16.2 20 16.6 19 16.8 17.5
    C17 16 16.8 14.5 16 13Z"
    fill="#fff176"/>
</svg>
